<svg xmlns="http://www.w3.org/2000/svg" xmlns:xlink="http://www.w3.org/1999/xlink" width="1080" zoomAndPan="magnify" viewBox="0 0 810 809.999993" height="1080" preserveAspectRatio="xMidYMid meet" version="1.0"><defs><clipPath id="4018cc9e92"><path d="M 252 91.796875 L 558 91.796875 L 558 417 L 252 417 Z M 252 91.796875 " clip-rule="nonzero"/></clipPath><clipPath id="bdc677634a"><path d="M 120 418 L 690 418 L 690 718.046875 L 120 718.046875 Z M 120 418 " clip-rule="nonzero"/></clipPath></defs><g clip-path="url(#4018cc9e92)"><path fill="#021f55" d="M 405 416.71875 C 488.855469 416.71875 557.0625 327.722656 557.0625 243.875 C 557.0625 160.027344 488.855469 91.796875 405 91.796875 C 321.144531 91.796875 252.929688 160.027344 252.929688 243.875 C 252.945312 327.714844 321.152344 416.71875 405 416.71875 Z M 405 416.71875 " fill-opacity="1" fill-rule="nonzero"/></g><g clip-path="url(#bdc677634a)"><path fill="#021f55" d="M 519.15625 418.277344 C 489.660156 440.753906 452.863281 454.125 413.003906 454.125 L 396.996094 454.125 C 357.128906 454.125 320.324219 440.746094 290.832031 418.277344 C 194.519531 433.847656 120.972656 517.328125 120.972656 618.023438 C 120.972656 673.34375 248.132812 718.199219 405 718.199219 C 561.855469 718.199219 689.023438 673.34375 689.023438 618.023438 C 689.023438 517.328125 615.46875 433.847656 519.15625 418.277344 Z M 519.15625 418.277344 " fill-opacity="1" fill-rule="nonzero"/></g></svg>