<svg xmlns="http://www.w3.org/2000/svg" xmlns:xlink="http://www.w3.org/1999/xlink" width="1080" zoomAndPan="magnify" viewBox="0 0 810 809.999993" height="1080" preserveAspectRatio="xMidYMid meet" version="1.0"><defs><clipPath id="32e911e987"><path d="M 66 63 L 745 63 L 745 769.5 L 66 769.5 Z M 66 63 " clip-rule="nonzero"/></clipPath></defs><g clip-path="url(#32e911e987)"><path fill="#021f55" d="M 742.539062 769.460938 C 630.753906 769.460938 519.0625 769.460938 407.371094 769.460938 C 406.054688 769.460938 404.730469 769.460938 403.414062 769.460938 C 291.722656 769.460938 180.03125 769.460938 68.246094 769.460938 C 65.8125 760.542969 66.414062 751.371094 67.542969 742.265625 C 69.296875 728.109375 73.621094 714.640625 79.359375 701.621094 C 86.15625 686.195312 98.550781 675.898438 112.042969 666.773438 C 136.613281 650.160156 163.886719 638.90625 191.082031 627.542969 C 210.640625 619.378906 230.328125 611.484375 249.824219 603.183594 C 305.105469 578.300781 312.472656 559.265625 313.3125 556.273438 C 313.710938 554.535156 314 552.75 314.171875 550.933594 C 314.566406 546.789062 314.878906 542.640625 315.152344 538.484375 L 315.152344 527.714844 C 195.679688 528.773438 160.480469 477.570312 160.480469 477.570312 C 160.480469 477.570312 228.753906 476.515625 224.523438 296.316406 C 220.304688 116.109375 303.375 86.355469 334.34375 74.570312 C 424.519531 40.289062 469.832031 94.8125 469.832031 94.8125 C 574.359375 85.140625 603.207031 199.328125 590.363281 329.382812 C 577.523438 459.4375 648.964844 479.667969 648.964844 479.667969 C 599.878906 529.816406 496.40625 526.644531 496.40625 526.644531 L 496.40625 548.742188 C 496.46875 549.460938 496.527344 550.1875 496.597656 550.910156 C 496.769531 552.71875 497.058594 554.503906 497.457031 556.25 C 498.304688 559.25 505.664062 578.285156 560.945312 603.160156 C 580.441406 611.460938 600.128906 619.363281 619.6875 627.519531 C 646.890625 638.875 674.15625 650.128906 698.726562 666.75 C 712.21875 675.882812 724.613281 686.171875 731.410156 701.59375 C 737.148438 714.609375 741.472656 728.085938 743.226562 742.242188 C 744.371094 751.363281 744.972656 760.542969 742.539062 769.460938 Z M 742.539062 769.460938 " fill-opacity="1" fill-rule="nonzero"/></g></svg>