<svg xmlns="http://www.w3.org/2000/svg" xmlns:xlink="http://www.w3.org/1999/xlink" width="1080" zoomAndPan="magnify" viewBox="0 0 810 809.999993" height="1080" preserveAspectRatio="xMidYMid meet" version="1.0"><defs><clipPath id="c963136d08"><path d="M 59.742188 146.058594 L 750.492188 146.058594 L 750.492188 664 L 59.742188 664 Z M 59.742188 146.058594 " clip-rule="nonzero"/></clipPath></defs><g clip-path="url(#c963136d08)"><path fill="#021f55" d="M 692.699219 146.058594 L 117.289062 146.058594 C 85.648438 146.058594 59.746094 171.960938 59.746094 203.601562 L 59.746094 606.386719 C 59.746094 638.03125 85.648438 663.933594 117.289062 663.933594 L 692.699219 663.933594 C 724.34375 663.933594 750.246094 638.03125 750.246094 606.386719 L 750.246094 203.601562 C 750.246094 171.960938 724.34375 146.058594 692.699219 146.058594 Z M 261.136719 261.136719 C 292.953125 261.136719 318.683594 286.902344 318.683594 318.683594 C 318.683594 350.464844 292.953125 376.226562 261.136719 376.226562 C 229.332031 376.226562 203.601562 350.464844 203.601562 318.683594 C 203.601562 286.902344 229.332031 261.136719 261.136719 261.136719 Z M 376.226562 548.851562 L 146.058594 548.851562 L 146.058594 491.332031 C 146.058594 459.554688 171.847656 433.796875 203.601562 433.796875 L 318.683594 433.761719 C 350.488281 433.761719 376.226562 459.527344 376.226562 491.308594 Z M 663.933594 548.851562 L 433.761719 548.851562 L 433.761719 491.308594 L 663.933594 491.308594 Z M 663.933594 433.761719 L 433.761719 433.761719 L 433.761719 376.226562 L 663.933594 376.226562 Z M 663.933594 318.683594 L 376.226562 318.683594 L 376.226562 261.136719 L 663.933594 261.136719 Z M 663.933594 318.683594 " fill-opacity="1" fill-rule="nonzero"/></g></svg>