<svg xmlns="http://www.w3.org/2000/svg" xmlns:xlink="http://www.w3.org/1999/xlink" width="1080" zoomAndPan="magnify" viewBox="0 0 810 809.999993" height="1080" preserveAspectRatio="xMidYMid meet" version="1.0"><defs><clipPath id="b50081d5d5"><path d="M 86.613281 87 L 722 87 L 722 321 L 86.613281 321 Z M 86.613281 87 " clip-rule="nonzero"/></clipPath><clipPath id="d04ce2fc4f"><path d="M 86.613281 362 L 722 362 L 722 723 L 86.613281 723 Z M 86.613281 362 " clip-rule="nonzero"/></clipPath></defs><g clip-path="url(#b50081d5d5)"><path fill="#021f55" d="M 721.269531 320.378906 L 721.269531 238.804688 C 721.289062 237.390625 721.277344 235.980469 721.226562 234.566406 C 721.175781 233.15625 721.09375 231.746094 720.972656 230.339844 C 720.855469 228.929688 720.703125 227.527344 720.515625 226.125 C 720.328125 224.726562 720.109375 223.332031 719.851562 221.941406 C 719.597656 220.554688 719.308594 219.171875 718.984375 217.796875 C 718.660156 216.421875 718.304688 215.054688 717.914062 213.695312 C 717.523438 212.339844 717.101562 210.992188 716.644531 209.65625 C 716.1875 208.320312 715.699219 206.992188 715.175781 205.679688 C 714.65625 204.367188 714.101562 203.070312 713.519531 201.78125 C 712.933594 200.496094 712.316406 199.226562 711.667969 197.96875 C 711.023438 196.714844 710.34375 195.476562 709.636719 194.253906 C 708.929688 193.03125 708.191406 191.828125 707.425781 190.640625 C 706.65625 189.453125 705.863281 188.289062 705.039062 187.140625 C 704.214844 185.992188 703.363281 184.867188 702.484375 183.761719 C 701.601562 182.65625 700.699219 181.574219 699.765625 180.511719 C 698.832031 179.449219 697.875 178.414062 696.890625 177.398438 C 695.90625 176.382812 694.898438 175.394531 693.867188 174.429688 C 692.835938 173.464844 691.78125 172.527344 690.703125 171.613281 C 689.625 170.699219 688.527344 169.816406 687.40625 168.957031 C 686.285156 168.097656 685.140625 167.265625 683.980469 166.460938 C 682.820312 165.660156 681.636719 164.882812 680.4375 164.140625 C 679.238281 163.394531 678.019531 162.679688 676.785156 161.992188 C 675.550781 161.308594 674.300781 160.652344 673.03125 160.027344 C 671.765625 159.402344 670.484375 158.808594 669.1875 158.25 C 667.890625 157.6875 666.582031 157.15625 665.257812 156.660156 C 663.9375 156.164062 662.605469 155.699219 661.257812 155.265625 C 659.914062 154.835938 658.558594 154.433594 657.195312 154.070312 C 655.832031 153.703125 654.457031 153.371094 653.078125 153.074219 C 651.695312 152.777344 650.308594 152.511719 648.914062 152.28125 C 647.523438 152.050781 646.125 151.855469 644.71875 151.691406 C 643.316406 151.53125 641.910156 151.402344 640.5 151.3125 C 639.089844 151.21875 637.679688 151.160156 636.269531 151.136719 L 594.339844 151.136719 L 594.339844 108.824219 C 594.339844 108.132812 594.304688 107.441406 594.238281 106.75 C 594.167969 106.0625 594.066406 105.378906 593.933594 104.699219 C 593.796875 104.019531 593.628906 103.347656 593.425781 102.683594 C 593.226562 102.019531 592.992188 101.371094 592.726562 100.730469 C 592.464844 100.089844 592.167969 99.464844 591.839844 98.851562 C 591.515625 98.242188 591.15625 97.648438 590.773438 97.070312 C 590.386719 96.496094 589.976562 95.941406 589.535156 95.40625 C 589.097656 94.867188 588.632812 94.355469 588.140625 93.867188 C 587.652344 93.375 587.140625 92.910156 586.605469 92.472656 C 586.070312 92.03125 585.511719 91.621094 584.9375 91.234375 C 584.359375 90.851562 583.765625 90.496094 583.15625 90.167969 C 582.542969 89.839844 581.917969 89.546875 581.277344 89.28125 C 580.640625 89.015625 579.988281 88.78125 579.324219 88.582031 C 578.660156 88.378906 577.988281 88.210938 577.308594 88.078125 C 576.632812 87.941406 575.945312 87.839844 575.257812 87.773438 C 574.566406 87.703125 573.875 87.671875 573.183594 87.671875 C 572.492188 87.671875 571.800781 87.703125 571.109375 87.773438 C 570.421875 87.839844 569.734375 87.941406 569.054688 88.078125 C 568.375 88.210938 567.707031 88.378906 567.042969 88.582031 C 566.378906 88.78125 565.726562 89.015625 565.085938 89.28125 C 564.449219 89.546875 563.820312 89.839844 563.210938 90.167969 C 562.601562 90.496094 562.007812 90.851562 561.429688 91.234375 C 560.855469 91.621094 560.296875 92.03125 559.761719 92.472656 C 559.226562 92.910156 558.714844 93.375 558.222656 93.867188 C 557.734375 94.355469 557.269531 94.867188 556.828125 95.40625 C 556.390625 95.941406 555.976562 96.496094 555.59375 97.070312 C 555.207031 97.648438 554.851562 98.242188 554.527344 98.851562 C 554.199219 99.464844 553.902344 100.089844 553.636719 100.730469 C 553.375 101.371094 553.140625 102.019531 552.9375 102.683594 C 552.738281 103.347656 552.570312 104.019531 552.433594 104.699219 C 552.300781 105.378906 552.199219 106.0625 552.128906 106.75 C 552.0625 107.441406 552.027344 108.132812 552.027344 108.824219 L 552.027344 151.136719 L 255.855469 151.136719 L 255.855469 108.824219 C 255.855469 108.132812 255.820312 107.441406 255.753906 106.75 C 255.683594 106.0625 255.582031 105.378906 255.449219 104.699219 C 255.3125 104.019531 255.144531 103.347656 254.945312 102.683594 C 254.742188 102.019531 254.507812 101.371094 254.242188 100.730469 C 253.980469 100.089844 253.683594 99.464844 253.355469 98.851562 C 253.03125 98.242188 252.675781 97.648438 252.289062 97.070312 C 251.902344 96.496094 251.492188 95.941406 251.050781 95.40625 C 250.613281 94.867188 250.148438 94.355469 249.65625 93.867188 C 249.167969 93.375 248.65625 92.910156 248.121094 92.472656 C 247.585938 92.03125 247.027344 91.621094 246.453125 91.234375 C 245.875 90.851562 245.28125 90.496094 244.671875 90.167969 C 244.0625 89.839844 243.433594 89.546875 242.792969 89.28125 C 242.15625 89.015625 241.503906 88.78125 240.839844 88.582031 C 240.175781 88.378906 239.507812 88.210938 238.828125 88.078125 C 238.148438 87.941406 237.460938 87.839844 236.773438 87.773438 C 236.082031 87.703125 235.390625 87.671875 234.699219 87.671875 C 234.007812 87.671875 233.316406 87.703125 232.625 87.773438 C 231.9375 87.839844 231.25 87.941406 230.570312 88.078125 C 229.890625 88.210938 229.222656 88.378906 228.558594 88.582031 C 227.894531 88.78125 227.242188 89.015625 226.601562 89.28125 C 225.964844 89.546875 225.335938 89.839844 224.726562 90.167969 C 224.117188 90.496094 223.523438 90.851562 222.945312 91.234375 C 222.371094 91.621094 221.8125 92.03125 221.277344 92.472656 C 220.742188 92.910156 220.230469 93.375 219.738281 93.867188 C 219.25 94.355469 218.785156 94.867188 218.347656 95.40625 C 217.90625 95.941406 217.492188 96.496094 217.109375 97.070312 C 216.722656 97.648438 216.367188 98.242188 216.042969 98.851562 C 215.714844 99.464844 215.417969 100.089844 215.152344 100.730469 C 214.890625 101.371094 214.65625 102.019531 214.453125 102.683594 C 214.253906 103.347656 214.085938 104.019531 213.949219 104.699219 C 213.816406 105.378906 213.714844 106.0625 213.644531 106.75 C 213.578125 107.441406 213.542969 108.132812 213.542969 108.824219 L 213.542969 151.136719 L 171.613281 151.136719 C 170.203125 151.160156 168.789062 151.21875 167.382812 151.3125 C 165.972656 151.402344 164.566406 151.53125 163.160156 151.691406 C 161.757812 151.855469 160.359375 152.050781 158.964844 152.28125 C 157.574219 152.511719 156.1875 152.777344 154.804688 153.074219 C 153.425781 153.371094 152.050781 153.703125 150.6875 154.070312 C 149.324219 154.433594 147.96875 154.835938 146.625 155.265625 C 145.277344 155.699219 143.945312 156.164062 142.621094 156.660156 C 141.300781 157.15625 139.992188 157.6875 138.695312 158.25 C 137.398438 158.808594 136.117188 159.402344 134.851562 160.027344 C 133.582031 160.652344 132.332031 161.308594 131.097656 161.992188 C 129.863281 162.679688 128.644531 163.394531 127.445312 164.140625 C 126.246094 164.882812 125.0625 165.660156 123.902344 166.460938 C 122.738281 167.265625 121.597656 168.097656 120.476562 168.957031 C 119.355469 169.816406 118.257812 170.699219 117.179688 171.613281 C 116.101562 172.527344 115.046875 173.464844 114.015625 174.429688 C 112.980469 175.394531 111.972656 176.382812 110.992188 177.398438 C 110.007812 178.414062 109.050781 179.449219 108.117188 180.511719 C 107.183594 181.574219 106.28125 182.65625 105.398438 183.761719 C 104.519531 184.867188 103.667969 185.992188 102.84375 187.140625 C 102.019531 188.289062 101.226562 189.453125 100.457031 190.640625 C 99.691406 191.828125 98.953125 193.03125 98.246094 194.253906 C 97.539062 195.476562 96.859375 196.714844 96.214844 197.96875 C 95.566406 199.226562 94.949219 200.496094 94.363281 201.78125 C 93.78125 203.070312 93.226562 204.367188 92.707031 205.679688 C 92.183594 206.992188 91.695312 208.320312 91.238281 209.65625 C 90.78125 210.992188 90.359375 212.339844 89.96875 213.695312 C 89.578125 215.054688 89.222656 216.421875 88.898438 217.796875 C 88.574219 219.171875 88.285156 220.554688 88.03125 221.941406 C 87.773438 223.332031 87.554688 224.726562 87.367188 226.125 C 87.179688 227.527344 87.027344 228.929688 86.90625 230.339844 C 86.789062 231.746094 86.707031 233.15625 86.65625 234.566406 C 86.605469 235.980469 86.59375 237.390625 86.613281 238.804688 L 86.613281 320.378906 Z M 721.269531 320.378906 " fill-opacity="1" fill-rule="nonzero"/></g><g clip-path="url(#d04ce2fc4f)"><path fill="#021f55" d="M 86.613281 362.6875 L 86.613281 634.660156 C 86.59375 636.074219 86.605469 637.484375 86.65625 638.898438 C 86.707031 640.308594 86.789062 641.71875 86.90625 643.125 C 87.027344 644.535156 87.179688 645.9375 87.367188 647.335938 C 87.554688 648.738281 87.773438 650.132812 88.03125 651.523438 C 88.285156 652.910156 88.574219 654.292969 88.898438 655.667969 C 89.222656 657.042969 89.578125 658.410156 89.96875 659.765625 C 90.359375 661.125 90.78125 662.472656 91.238281 663.808594 C 91.695312 665.144531 92.183594 666.46875 92.707031 667.785156 C 93.226562 669.097656 93.78125 670.394531 94.363281 671.679688 C 94.949219 672.96875 95.566406 674.238281 96.214844 675.492188 C 96.859375 676.75 97.539062 677.988281 98.246094 679.210938 C 98.953125 680.433594 99.691406 681.636719 100.457031 682.824219 C 101.226562 684.007812 102.019531 685.175781 102.84375 686.324219 C 103.667969 687.46875 104.519531 688.597656 105.398438 689.703125 C 106.28125 690.808594 107.183594 691.890625 108.117188 692.953125 C 109.050781 694.011719 110.007812 695.050781 110.992188 696.066406 C 111.976562 697.078125 112.980469 698.070312 114.015625 699.035156 C 115.046875 700 116.101562 700.9375 117.179688 701.851562 C 118.257812 702.761719 119.355469 703.648438 120.476562 704.507812 C 121.597656 705.367188 122.738281 706.199219 123.902344 707.003906 C 125.0625 707.804688 126.246094 708.578125 127.445312 709.324219 C 128.644531 710.070312 129.863281 710.785156 131.097656 711.472656 C 132.332031 712.15625 133.582031 712.8125 134.851562 713.4375 C 136.117188 714.0625 137.398438 714.652344 138.695312 715.214844 C 139.992188 715.777344 141.300781 716.304688 142.621094 716.804688 C 143.945312 717.300781 145.277344 717.765625 146.625 718.199219 C 147.96875 718.628906 149.324219 719.027344 150.6875 719.394531 C 152.050781 719.757812 153.425781 720.089844 154.804688 720.390625 C 156.1875 720.6875 157.574219 720.953125 158.964844 721.183594 C 160.359375 721.414062 161.757812 721.609375 163.160156 721.769531 C 164.566406 721.933594 165.972656 722.058594 167.382812 722.152344 C 168.789062 722.246094 170.203125 722.304688 171.613281 722.328125 L 636.269531 722.328125 C 637.679688 722.304688 639.089844 722.246094 640.5 722.152344 C 641.910156 722.058594 643.316406 721.933594 644.71875 721.769531 C 646.125 721.609375 647.523438 721.414062 648.914062 721.183594 C 650.308594 720.953125 651.695312 720.6875 653.078125 720.390625 C 654.457031 720.089844 655.832031 719.757812 657.195312 719.394531 C 658.558594 719.027344 659.914062 718.628906 661.257812 718.199219 C 662.605469 717.765625 663.9375 717.300781 665.257812 716.804688 C 666.582031 716.304688 667.890625 715.777344 669.1875 715.214844 C 670.484375 714.652344 671.765625 714.0625 673.03125 713.4375 C 674.300781 712.8125 675.550781 712.15625 676.785156 711.472656 C 678.019531 710.785156 679.238281 710.070312 680.4375 709.324219 C 681.636719 708.578125 682.820312 707.804688 683.980469 707.003906 C 685.140625 706.199219 686.285156 705.367188 687.40625 704.507812 C 688.527344 703.648438 689.625 702.761719 690.703125 701.851562 C 691.78125 700.9375 692.835938 700 693.867188 699.035156 C 694.898438 698.070312 695.90625 697.078125 696.890625 696.066406 C 697.875 695.050781 698.832031 694.011719 699.765625 692.953125 C 700.695312 691.890625 701.601562 690.808594 702.484375 689.703125 C 703.363281 688.597656 704.214844 687.46875 705.039062 686.324219 C 705.863281 685.175781 706.65625 684.007812 707.425781 682.824219 C 708.191406 681.636719 708.929688 680.433594 709.636719 679.210938 C 710.34375 677.988281 711.023438 676.75 711.667969 675.492188 C 712.316406 674.238281 712.933594 672.96875 713.519531 671.679688 C 714.101562 670.394531 714.65625 669.097656 715.175781 667.785156 C 715.699219 666.46875 716.1875 665.144531 716.644531 663.808594 C 717.101562 662.472656 717.523438 661.125 717.914062 659.765625 C 718.304688 658.410156 718.660156 657.042969 718.984375 655.667969 C 719.308594 654.292969 719.597656 652.910156 719.851562 651.523438 C 720.109375 650.132812 720.328125 648.738281 720.515625 647.335938 C 720.703125 645.9375 720.855469 644.535156 720.972656 643.125 C 721.09375 641.71875 721.175781 640.308594 721.226562 638.898438 C 721.277344 637.484375 721.289062 636.074219 721.269531 634.660156 L 721.269531 362.6875 Z M 86.613281 362.6875 " fill-opacity="1" fill-rule="nonzero"/></g></svg>