<svg xmlns="http://www.w3.org/2000/svg" xmlns:xlink="http://www.w3.org/1999/xlink" width="1080" zoomAndPan="magnify" viewBox="0 0 810 809.999993" height="1080" preserveAspectRatio="xMidYMid meet" version="1.0"><defs><clipPath id="a545bed5d1"><path d="M 50.40625 50.40625 L 759.90625 50.40625 L 759.90625 759.90625 L 50.40625 759.90625 Z M 50.40625 50.40625 " clip-rule="nonzero"/></clipPath></defs><g clip-path="url(#a545bed5d1)"><path fill="#021f55" d="M 404.996094 759.589844 C 600.867188 759.589844 759.589844 600.867188 759.589844 404.996094 C 759.589844 209.125 600.867188 50.40625 404.996094 50.40625 C 209.125 50.40625 50.40625 209.125 50.40625 404.996094 C 50.40625 600.867188 209.125 759.589844 404.996094 759.589844 Z M 252.183594 551.054688 L 269.914062 512.21875 C 272.445312 507.152344 275.824219 503.773438 280.890625 502.085938 C 282.578125 501.242188 285.109375 501.242188 286.800781 501.242188 C 290.175781 501.242188 292.710938 502.085938 296.085938 503.773438 C 322.257812 518.128906 358.5625 526.570312 391.488281 526.570312 C 430.324219 526.570312 459.03125 510.53125 459.03125 488.578125 C 459.03125 474.226562 450.585938 457.339844 390.644531 437.921875 C 324.792969 417.660156 258.09375 387.265625 258.09375 319.726562 C 258.09375 268.226562 295.242188 228.542969 357.71875 212.503906 L 367.003906 209.972656 L 367.003906 167.757812 C 367.003906 157.625 375.445312 149.183594 385.578125 149.183594 L 430.324219 149.183594 C 440.457031 149.183594 448.898438 157.625 448.898438 167.757812 L 448.898438 205.75 L 459.875 207.4375 C 486.890625 210.816406 510.53125 217.570312 531.636719 227.699219 C 535.859375 230.234375 540.078125 233.609375 541.769531 238.675781 C 543.457031 243.742188 543.457031 248.808594 540.921875 253.027344 L 523.195312 290.175781 C 519.816406 296.929688 513.0625 301.152344 506.308594 301.152344 C 503.777344 301.152344 501.242188 300.308594 498.710938 299.464844 C 486.890625 294.398438 459.03125 281.734375 415.128906 281.734375 C 375.445312 281.734375 357.71875 296.929688 357.71875 312.972656 C 357.71875 329.855469 376.292969 341.675781 434.546875 361.09375 C 496.175781 381.355469 559.496094 411.75 559.496094 485.203125 C 559.496094 524.882812 531.636719 578.070312 454.808594 597.488281 L 444.675781 599.175781 L 444.675781 643.078125 C 444.675781 653.210938 436.234375 661.652344 426.101562 661.652344 L 380.511719 661.652344 C 370.382812 661.652344 361.9375 653.210938 361.9375 643.078125 L 361.9375 602.554688 L 350.964844 601.710938 C 316.347656 597.488281 283.421875 588.203125 261.472656 575.539062 C 251.339844 570.472656 247.964844 560.339844 252.183594 551.054688 Z M 252.183594 551.054688 " fill-opacity="1" fill-rule="nonzero"/></g></svg>